<?xml version="1.0" encoding="UTF-8" standalone="no"?>
<!-- Created with Inkscape (http://www.inkscape.org/) -->

<svg
   version="1.1"
   id="svg1"
   width="46.131866"
   height="79.899361"
   viewBox="0 0 46.131866 79.899361"
   sodipodi:docname="Nomalog logo.svg"
   inkscape:version="1.3 (0e150ed6c4, 2023-07-21)"
   xmlns:inkscape="http://www.inkscape.org/namespaces/inkscape"
   xmlns:sodipodi="http://sodipodi.sourceforge.net/DTD/sodipodi-0.dtd"
   xmlns="http://www.w3.org/2000/svg"
   xmlns:svg="http://www.w3.org/2000/svg">
  <defs
     id="defs1" />
  <sodipodi:namedview
     id="namedview1"
     pagecolor="#ffffff"
     bordercolor="#000000"
     borderopacity="0.25"
     inkscape:showpageshadow="2"
     inkscape:pageopacity="0.0"
     inkscape:pagecheckerboard="0"
     inkscape:deskcolor="#d1d1d1"
     inkscape:zoom="1.17"
     inkscape:cx="257.69231"
     inkscape:cy="215.81197"
     inkscape:window-width="1366"
     inkscape:window-height="745"
     inkscape:window-x="-8"
     inkscape:window-y="-8"
     inkscape:window-maximized="1"
     inkscape:current-layer="g1" />
  <g
     inkscape:groupmode="layer"
     inkscape:label="Image"
     id="g1"
     transform="translate(-79.355385,-41.040813)">
    <g
       id="g10"
       transform="translate(9.1117943)">
      <path
         style="fill:#00ffff"
         id="path1"
         d="M 94.651979,41.040814 C 78.62954,51.805438 80.750929,62.666981 82.817553,76.211937 84.884176,89.756894 91.467294,103.14146 82.864246,114.22527 96.454484,102.32022 94.228194,89.98986 93.247049,82.074916 92.265904,74.159972 86.850783,60.72962 94.651979,41.040814 Z"
         sodipodi:nodetypes="czczc" />
      <path
         style="fill:#000080"
         d="m 94.017094,65.277778 c 0,0 2.125823,9.042876 2.991453,14.423077 0.86563,5.380201 1.479254,11.228833 0.641026,16.452991 -0.838228,5.224154 -3.022812,10.090444 -5.769231,14.316244 -2.746419,4.2258 -10.68376,10.47008 -10.68376,10.47008 0,0 10.186187,-6.62391 13.888889,-10.89743 3.702702,-4.27352 7.250289,-9.57693 8.547009,-14.102569 1.29672,-4.525635 1.07002,-7.970863 0.42735,-11.965812 -0.64267,-3.994949 -2.28565,-8.190866 -4.273505,-11.538462 -1.98785,-3.347596 -5.769231,-7.158119 -5.769231,-7.158119 z"
         id="path9"
         sodipodi:nodetypes="czzzczzzzc" />
      <path
         style="fill:#000080"
         d="m 110.33702,69.773504 c -6.13506,0.183301 -15.592736,1.226186 -22.863248,3.846154 -15.316283,5.519304 -17.653494,10.236568 -17.174145,12.713675 0.431139,2.227975 2.21562,3.374992 3.712607,3.952991 1.496987,0.577999 5.235043,0.106838 5.235043,0.106838 0,0 -3.841388,-1.217003 -3.952992,-3.952991 -0.06194,-1.518464 2.489345,-3.828536 4.258457,-5.205473 9.120837,-6.985384 19.955627,-8.920737 30.784278,-11.461194 z"
         id="path10-0"
         sodipodi:nodetypes="cszzcssc" />
      <path
         style="fill:#000080"
         d="m 116.37546,79.065472 c -6.13506,0.183301 -15.59273,1.226186 -22.863244,3.846154 -15.316283,5.519304 -17.653494,10.236568 -17.174145,12.713675 0.431139,2.227975 2.21562,3.374992 3.712607,3.952991 1.496987,0.577998 5.235043,0.106838 5.235043,0.106838 0,0 -3.841388,-1.217003 -3.952992,-3.952991 -0.06194,-1.518464 2.489345,-3.828536 4.258457,-5.205473 9.120837,-6.985384 19.955624,-8.920737 30.784274,-11.461194 z"
         id="path10-0-8"
         sodipodi:nodetypes="cszzcssc" />
    </g>
  </g>
</svg>
